<?xml version="1.0" encoding="UTF-8" standalone="no"?>
<svg width="64px" height="40px" viewBox="0 0 64 40" version="1.1" xmlns="http://www.w3.org/2000/svg" xmlns:xlink="http://www.w3.org/1999/xlink">
    <!-- Generator: Sketch 3.6.1 (26313) - http://www.bohemiancoding.com/sketch -->
    <title>Deposit</title>
    <desc>Created with Sketch.</desc>
    <defs></defs>
    <g id="Page-1" stroke="none" stroke-width="1" fill="none" fill-rule="evenodd">
        <g id="Finance" transform="translate(-316.000000, -280.000000)" fill="#4573E3">
            <g id="Deposit" transform="translate(316.000000, 280.000000)">
                <path d="M57,7 L57,19 L55,19 L55,20 L58,20 L58,6 L6,6 L6,20 L10,20 L10,19 L7,19 L7,7 L57,7 Z" id="Fill-1"></path>
                <path d="M6,6 L6,20 L9,20 L9,8 L55,8 L55,20 L58,20 L58,6 L6,6 L6,6 Z" id="Fill-2" fill-opacity="0.5"></path>
                <path d="M44,12 C44,12.552 43.552,13 43,13 C42.448,13 42,12.552 42,12 C42,11.448 42.448,11 43,11 C43.552,11 44,11.448 44,12" id="Fill-4"></path>
                <path d="M22,12 C22,12.552 21.552,13 21,13 C20.448,13 20,12.552 20,12 C20,11.448 20.448,11 21,11 C21.552,11 22,11.448 22,12" id="Fill-6"></path>
                <path d="M9,22 L55,22 L55,8 L9,8 L9,22 Z M10,21 L54,21 L54,9 L10,9 L10,21 Z" id="Fill-8"></path>
                <path d="M53,8 L11,8 L11,17 C12.657,17 14,18.343 14,20 L50,20 C50,18.343 51.343,17 53,17 L53,8 Z M52,9 L52,16.127 C50.596,16.489 49.489,17.596 49.127,19 L14.873,19 C14.511,17.596 13.404,16.489 12,16.127 L12,9 L52,9 L52,9 Z" id="Fill-10"></path>
                <path d="M34.3781,8 L29.6221,8 C28.6431,8.911 28.0001,10.357 28.0001,12 C28.0001,14.761 29.7911,17 32.0001,17 C34.2091,17 36.0001,14.761 36.0001,12 C36.0001,10.357 35.3571,8.911 34.3781,8 M33.9551,9 C34.6141,9.762 35.0001,10.855 35.0001,12 C35.0001,14.206 33.6541,16 32.0001,16 C30.3461,16 29.0001,14.206 29.0001,12 C29.0001,10.855 29.3851,9.762 30.0451,9 L33.9551,9" id="Fill-11"></path>
                <path d="M0,0 L0,26 L28.172,26 L30.172,24 L2,24 L2,2 L62,2 L62,24 L33.828,24 L35.828,26 L64,26 L64,0 L0,0 Z" id="Fill-12"></path>
                <path d="M32,40 L32,40 C31.448,40 31,39.552 31,39 L31,25 C31,24.448 31.448,24 32,24 L32,24 C32.552,24 33,24.448 33,25 L33,39 C33,39.552 32.552,40 32,40" id="Fill-13"></path>
                <path d="M38,32 C37.744,32 37.488,31.902 37.293,31.707 L31.293,25.707 C30.902,25.316 30.902,24.684 31.293,24.293 C31.684,23.902 32.316,23.902 32.707,24.293 L38.707,30.293 C39.098,30.684 39.098,31.316 38.707,31.707 C38.512,31.902 38.256,32 38,32" id="Fill-14"></path>
                <path d="M26,32 C25.744,32 25.488,31.902 25.293,31.707 C24.902,31.316 24.902,30.684 25.293,30.293 L31.293,24.293 C31.684,23.902 32.316,23.902 32.707,24.293 C33.098,24.684 33.098,25.316 32.707,25.707 L26.707,31.707 C26.512,31.902 26.256,32 26,32" id="Fill-15"></path>
            </g>
        </g>
    </g>
</svg>